<svg width="640" height="94" fill="none" xmlns="http://www.w3.org/2000/svg"><path stroke="#DDD" d="M.5 62.5h71v31H.5z"/><path d="M8.96 71.8h6.64v1.952h-4.448v2.608H15.2v1.952h-4.048v2.736h4.528V83H8.96V71.8zm14.44 0h2.08v7.232c0 .725-.097 1.35-.289 1.872-.192.523-.458.955-.8 1.296a3.09 3.09 0 01-1.248.752c-.49.16-1.029.24-1.616.24-2.837 0-4.256-1.296-4.256-3.888V71.8h2.192v7.072c0 .437.038.81.112 1.12.086.299.214.544.384.736.171.181.384.315.64.4.256.075.555.112.896.112.672 0 1.158-.187 1.456-.56.299-.373.448-.976.448-1.808V71.8z" fill="#000"/><path stroke="#DDD" d="M71.5 62.5h71v31h-71z"/><path d="M102.025 82.072a3.07 3.07 0 001.008-.16c.31-.107.576-.261.8-.464a2.298 2.298 0 00.72-1.696c0-.747-.224-1.301-.672-1.664-.437-.363-1.045-.544-1.824-.544h-1.184v-.464l2.304-3.552.736-.704-1.04.16h-3.168V71.8h5.712v.464l-2.544 3.824-.56.464v.032l.544-.112c.427.01.822.09 1.184.24.363.139.678.347.944.624.267.267.475.592.624.976.15.373.224.8.224 1.28 0 .576-.101 1.088-.304 1.536a3.29 3.29 0 01-.832 1.136 3.564 3.564 0 01-1.216.688c-.469.16-.965.24-1.488.24-.48 0-.912-.037-1.296-.112a5.432 5.432 0 01-1.008-.288l.336-1.136c.246.117.534.219.864.304.342.075.72.112 1.136.112zm12.847-2.448c0 .49-.075.955-.224 1.392a3.438 3.438 0 01-.656 1.136c-.288.32-.645.576-1.072.768a3.693 3.693 0 01-1.456.272 3.85 3.85 0 01-1.44-.256 3.031 3.031 0 01-1.104-.752 3.596 3.596 0 01-.72-1.248c-.16-.49-.24-1.056-.24-1.696 0-1.056.133-2.027.4-2.912.277-.896.656-1.675 1.136-2.336a6.025 6.025 0 011.696-1.6 5.37 5.37 0 012.144-.784l.272 1.024a4.7 4.7 0 00-1.632.608 5.342 5.342 0 00-1.296 1.104 6.036 6.036 0 00-.896 1.472 6.679 6.679 0 00-.48 1.68c.171-.288.459-.55.864-.784.405-.245.901-.368 1.488-.368 1.003 0 1.787.288 2.352.864.576.576.864 1.381.864 2.416zm-1.328.128c0-.757-.176-1.328-.528-1.712-.352-.384-.896-.576-1.632-.576-.523 0-.976.128-1.36.384-.373.256-.635.544-.784.864-.021.15-.032.272-.032.368v.32c0 .33.043.656.128.976.096.32.24.608.432.864.192.245.427.448.704.608.288.15.624.224 1.008.224.309 0 .587-.059.832-.176a1.958 1.958 0 001.072-1.216c.107-.288.16-.597.16-.928z" fill="#000"/><path stroke="#DDD" d="M142.5 62.5h71v31h-71z"/><path d="M173.025 82.072a3.07 3.07 0 001.008-.16c.31-.107.576-.261.8-.464a2.298 2.298 0 00.72-1.696c0-.747-.224-1.301-.672-1.664-.437-.363-1.045-.544-1.824-.544h-1.184v-.464l2.304-3.552.736-.704-1.04.16h-3.168V71.8h5.712v.464l-2.544 3.824-.56.464v.032l.544-.112c.427.01.822.09 1.184.24.363.139.678.347.944.624.267.267.475.592.624.976.15.373.224.8.224 1.28 0 .576-.101 1.088-.304 1.536a3.29 3.29 0 01-.832 1.136 3.564 3.564 0 01-1.216.688c-.469.16-.965.24-1.488.24-.48 0-.912-.037-1.296-.112a5.435 5.435 0 01-1.008-.288l.336-1.136c.246.117.534.219.864.304.342.075.72.112 1.136.112zm6.735.928l4.016-9.376.704-.784-.944.144h-4.56V71.8h6.688v.432L181.056 83h-1.296z" fill="#000"/><path stroke="#DDD" d="M213.5 62.5h71v31h-71z"/><path d="M244.025 82.072a3.07 3.07 0 001.008-.16c.31-.107.576-.261.8-.464a2.298 2.298 0 00.72-1.696c0-.747-.224-1.301-.672-1.664-.437-.363-1.045-.544-1.824-.544h-1.184v-.464l2.304-3.552.736-.704-1.04.16h-3.168V71.8h5.712v.464l-2.544 3.824-.56.464v.032l.544-.112c.427.01.822.09 1.184.24.363.139.678.347.944.624.267.267.475.592.624.976.15.373.224.8.224 1.28 0 .576-.101 1.088-.304 1.536a3.29 3.29 0 01-.832 1.136 3.564 3.564 0 01-1.216.688c-.469.16-.965.24-1.488.24-.48 0-.912-.037-1.296-.112a5.435 5.435 0 01-1.008-.288l.336-1.136c.246.117.534.219.864.304.342.075.72.112 1.136.112zm6.063-1.744c0-.672.176-1.253.528-1.744.352-.501.901-.955 1.648-1.36a10.19 10.19 0 01-.752-.496 4.078 4.078 0 01-.608-.608 3.024 3.024 0 01-.416-.752 2.93 2.93 0 01-.144-.96c0-.416.069-.795.208-1.136.149-.341.357-.635.624-.88a3.07 3.07 0 01.976-.576 3.796 3.796 0 011.296-.208c.448 0 .853.064 1.216.192s.667.304.912.528a2.3 2.3 0 01.592.8c.139.31.208.65.208 1.024 0 .608-.139 1.147-.416 1.616-.277.459-.736.912-1.376 1.36.277.16.539.336.784.528.256.192.475.405.656.64.192.235.341.501.448.8.107.288.16.619.16.992 0 .459-.075.88-.224 1.264a2.76 2.76 0 01-.656.976c-.288.267-.64.48-1.056.64-.416.15-.891.224-1.424.224a3.83 3.83 0 01-1.36-.224 3.059 3.059 0 01-1.008-.608 2.57 2.57 0 01-.608-.896 3.065 3.065 0 01-.208-1.136zm5.296-.16c0-.32-.064-.597-.192-.832a2.331 2.331 0 00-.512-.656 3.63 3.63 0 00-.704-.544c-.267-.16-.544-.315-.832-.464-.651.363-1.115.768-1.392 1.216-.277.448-.416.875-.416 1.28 0 .256.043.501.128.736s.213.437.384.608c.171.17.379.31.624.416.256.096.549.144.88.144.267 0 .523-.037.768-.112a2.06 2.06 0 00.64-.352c.192-.16.341-.357.448-.592.117-.245.176-.528.176-.848zm-3.792-5.792c0 .299.059.565.176.8.117.224.272.427.464.608.203.181.432.352.688.512.256.15.523.293.8.432.48-.373.832-.741 1.056-1.104.235-.363.352-.763.352-1.2 0-.544-.171-.96-.512-1.248a1.728 1.728 0 00-1.2-.448 1.934 1.934 0 00-1.344.512 1.52 1.52 0 00-.368.528 1.656 1.656 0 00-.112.608z" fill="#000"/><path stroke="#DDD" d="M284.5 62.5h71v31h-71z"/><path d="M315.025 82.072a3.07 3.07 0 001.008-.16c.31-.107.576-.261.8-.464a2.298 2.298 0 00.72-1.696c0-.747-.224-1.301-.672-1.664-.437-.363-1.045-.544-1.824-.544h-1.184v-.464l2.304-3.552.736-.704-1.04.16h-3.168V71.8h5.712v.464l-2.544 3.824-.56.464v.032l.544-.112c.427.01.822.09 1.184.24.363.139.678.347.944.624.267.267.475.592.624.976.15.373.224.8.224 1.28 0 .576-.101 1.088-.304 1.536a3.29 3.29 0 01-.832 1.136 3.564 3.564 0 01-1.216.688c-.469.16-.965.24-1.488.24-.48 0-.912-.037-1.296-.112a5.435 5.435 0 01-1.008-.288l.336-1.136c.246.117.534.219.864.304.342.075.72.112 1.136.112zm5.807-6.88c0-.512.075-.987.224-1.424a3.24 3.24 0 01.656-1.136 2.99 2.99 0 011.072-.752c.437-.181.944-.272 1.52-.272 1.088 0 1.936.352 2.544 1.056.608.704.912 1.696.912 2.976 0 1.205-.139 2.261-.416 3.168-.267.896-.64 1.653-1.12 2.272a5.314 5.314 0 01-1.712 1.456c-.651.341-1.36.56-2.128.656l-.288-1.024a5.09 5.09 0 001.664-.544 4.437 4.437 0 001.28-1.008c.363-.405.656-.864.88-1.376a6.609 6.609 0 00.464-1.696c-.288.341-.608.581-.96.72-.341.128-.795.192-1.36.192a3.74 3.74 0 01-1.248-.208 3.193 3.193 0 01-1.024-.64 2.924 2.924 0 01-.704-1.024c-.171-.405-.256-.87-.256-1.392zm1.328-.128c0 .757.197 1.328.592 1.712.405.373.933.56 1.584.56.523 0 .971-.085 1.344-.256.373-.17.64-.395.8-.672.021-.139.032-.261.032-.368v-.336c0-.384-.048-.752-.144-1.104a2.988 2.988 0 00-.4-.96 1.89 1.89 0 00-.72-.672c-.288-.16-.629-.24-1.024-.24-.651 0-1.157.208-1.52.624-.363.405-.544.976-.544 1.712z" fill="#000"/><path stroke="#DDD" d="M355.5 62.5h71v31h-71z"/><path d="M390.665 79.56h-1.888V83h-1.248v-3.44h-4.928v-.528l5.312-7.408h.864v6.816h1.888v1.12zm-3.136-4.608l.16-1.312h-.048l-.56 1.088-2.256 3.056-.768.784 1.12-.128h2.352v-3.488zm4.159 2.448c0-1.92.309-3.365.928-4.336.629-.97 1.541-1.456 2.736-1.456 1.291 0 2.224.48 2.8 1.44.587.95.88 2.4.88 4.352 0 1.92-.315 3.365-.944 4.336-.619.97-1.531 1.456-2.736 1.456-1.269 0-2.197-.507-2.784-1.52-.587-1.013-.88-2.437-.88-4.272zm1.328 0c0 .693.043 1.328.128 1.904.096.565.24 1.056.432 1.472.192.405.432.725.72.96.299.224.651.336 1.056.336.811 0 1.403-.373 1.776-1.12.384-.757.576-1.941.576-3.552 0-.683-.043-1.312-.128-1.888-.075-.576-.208-1.072-.4-1.488-.181-.416-.421-.736-.72-.96-.299-.224-.667-.336-1.104-.336-.8 0-1.392.379-1.776 1.136-.373.757-.56 1.936-.56 3.536z" fill="#000"/><path stroke="#DDD" d="M426.5 62.5h71v31h-71z"/><path d="M461.665 79.56h-1.888V83h-1.248v-3.44h-4.928v-.528l5.312-7.408h.864v6.816h1.888v1.12zm-3.136-4.608l.16-1.312h-.048l-.56 1.088-2.256 3.056-.768.784 1.12-.128h2.352v-3.488zm5.199 6.864h2.24v-7.744l.16-.944-.64.752-1.76 1.264-.608-.816 3.52-2.72h.576v10.208h2.192V83h-5.68v-1.184z" fill="#000"/><path stroke="#DDD" d="M497.5 62.5h71v31h-71z"/><path d="M532.665 79.56h-1.888V83h-1.248v-3.44h-4.928v-.528l5.312-7.408h.864v6.816h1.888v1.12zm-3.136-4.608l.16-1.312h-.048l-.56 1.088-2.256 3.056-.768.784 1.12-.128h2.352v-3.488zm10.607-.608c0 .565-.107 1.147-.32 1.744a10.542 10.542 0 01-.816 1.776 17.46 17.46 0 01-1.12 1.76 42.652 42.652 0 01-1.248 1.616l-.784.688v.064l1.024-.176h3.488V83h-6.368v-.464c.235-.245.517-.55.848-.912a25.54 25.54 0 001.024-1.2c.363-.448.715-.917 1.056-1.408.352-.501.667-1.008.944-1.52a9.094 9.094 0 00.688-1.52c.171-.501.256-.976.256-1.424 0-.523-.149-.955-.448-1.296-.299-.352-.752-.528-1.36-.528-.405 0-.8.085-1.184.256a4.39 4.39 0 00-.992.56l-.528-.912a4.15 4.15 0 011.328-.752 4.9 4.9 0 011.648-.272 3.3 3.3 0 011.216.208c.352.128.651.315.896.56.245.245.432.539.56.88.128.33.192.693.192 1.088z" fill="#000"/><path stroke="#DDD" d="M568.5 62.5h71v31h-71z"/><path d="M603.665 79.56h-1.888V83h-1.248v-3.44h-4.928v-.528l5.312-7.408h.864v6.816h1.888v1.12zm-3.136-4.608l.16-1.312h-.048l-.56 1.088-2.256 3.056-.768.784 1.12-.128h2.352v-3.488zm7.215 7.12a3.07 3.07 0 001.008-.16 2.29 2.29 0 00.8-.464 2.298 2.298 0 00.72-1.696c0-.747-.224-1.301-.672-1.664-.437-.363-1.045-.544-1.824-.544h-1.184v-.464l2.304-3.552.736-.704-1.04.16h-3.168V71.8h5.712v.464l-2.544 3.824-.56.464v.032l.544-.112c.427.01.821.09 1.184.24.363.139.677.347.944.624.267.267.475.592.624.976.149.373.224.8.224 1.28 0 .576-.101 1.088-.304 1.536-.203.448-.48.827-.832 1.136a3.574 3.574 0 01-1.216.688c-.469.16-.965.24-1.488.24-.48 0-.912-.037-1.296-.112a5.435 5.435 0 01-1.008-.288l.336-1.136c.245.117.533.219.864.304.341.075.72.112 1.136.112z" fill="#000"/><path stroke="#DDD" d="M71.5 31.5h71v31h-71z"/><path d="M100.228 51.072a3.07 3.07 0 001.008-.16c.31-.107.576-.261.8-.464a2.298 2.298 0 00.72-1.696c0-.747-.224-1.301-.672-1.664-.437-.363-1.045-.544-1.824-.544h-1.184v-.464l2.304-3.552.736-.704-1.04.16h-3.168V40.8h5.712v.464l-2.544 3.824-.56.464v.032l.544-.112c.427.01.822.09 1.184.24.363.139.678.347.944.624.267.267.475.592.624.976.15.373.224.8.224 1.28 0 .576-.101 1.088-.304 1.536a3.29 3.29 0 01-.832 1.136 3.564 3.564 0 01-1.216.688c-.469.16-.965.24-1.488.24-.48 0-.912-.037-1.296-.112a5.435 5.435 0 01-1.008-.288l.336-1.136c.246.117.534.219.864.304.342.075.72.112 1.136.112zm5.759.24c0-.256.085-.464.256-.624a.92.92 0 01.656-.24c.331 0 .597.117.8.352.213.235.32.576.32 1.024 0 .384-.053.72-.16 1.008a2.454 2.454 0 01-.416.736 2.283 2.283 0 01-.56.512c-.203.139-.405.24-.608.304l-.4-.624c.384-.15.667-.384.848-.704.192-.31.288-.624.288-.944a.863.863 0 01-.272.048.77.77 0 01-.544-.208c-.139-.15-.208-.363-.208-.64zm6.218-.24c.736 0 1.344-.213 1.824-.64.48-.427.72-1.045.72-1.856 0-.779-.24-1.36-.72-1.744-.469-.384-1.12-.576-1.952-.576l-1.344.08V40.8h4.992v1.184h-3.792v3.184l.688-.032c1.056.01 1.888.304 2.496.88.608.576.912 1.403.912 2.48 0 .597-.101 1.13-.304 1.6a3.27 3.27 0 01-.832 1.152c-.341.31-.747.544-1.216.704a4.63 4.63 0 01-1.504.24 7.81 7.81 0 01-1.216-.08 4.912 4.912 0 01-.928-.24l.336-1.088c.245.096.507.17.784.224.288.043.64.064 1.056.064z" fill="#000"/><path stroke="#DDD" d="M142.5 31.5h71v31h-71z"/><path d="M182.025 48.56h-1.888V52h-1.248v-3.44h-4.928v-.528l5.312-7.408h.864v6.816h1.888v1.12zm-3.136-4.608l.16-1.312h-.048l-.56 1.088-2.256 3.056-.768.784 1.12-.128h2.352v-3.488z" fill="#000"/><path stroke="#DDD" d="M213.5 31.5h71v31h-71z"/><path d="M246.868 48.56h-1.888V52h-1.248v-3.44h-4.928v-.528l5.312-7.408h.864v6.816h1.888v1.12zm-3.136-4.608l.16-1.312h-.048l-.56 1.088-2.256 3.056-.768.784 1.12-.128h2.352v-3.488zm4.255 7.36c0-.256.085-.464.256-.624a.92.92 0 01.656-.24c.331 0 .597.117.8.352.213.235.32.576.32 1.024 0 .384-.053.72-.16 1.008a2.454 2.454 0 01-.416.736 2.283 2.283 0 01-.56.512c-.203.139-.405.24-.608.304l-.4-.624c.384-.15.667-.384.848-.704.192-.31.288-.624.288-.944a.863.863 0 01-.272.048.77.77 0 01-.544-.208c-.139-.15-.208-.363-.208-.64zm6.218-.24c.736 0 1.344-.213 1.824-.64.48-.427.72-1.045.72-1.856 0-.779-.24-1.36-.72-1.744-.469-.384-1.12-.576-1.952-.576l-1.344.08V40.8h4.992v1.184h-3.792v3.184l.688-.032c1.056.01 1.888.304 2.496.88.608.576.912 1.403.912 2.48 0 .597-.101 1.13-.304 1.6a3.27 3.27 0 01-.832 1.152c-.341.31-.747.544-1.216.704a4.63 4.63 0 01-1.504.24 7.81 7.81 0 01-1.216-.08 4.912 4.912 0 01-.928-.24l.336-1.088c.245.096.507.17.784.224.288.043.64.064 1.056.064z" fill="#000"/><path stroke="#DDD" d="M284.5 31.5h71v31h-71z"/><path d="M323.513 48.624c0 .49-.075.955-.224 1.392-.15.427-.368.805-.656 1.136-.288.32-.646.576-1.072.768a3.693 3.693 0 01-1.456.272 3.843 3.843 0 01-1.44-.256 3.031 3.031 0 01-1.104-.752 3.565 3.565 0 01-.72-1.248c-.16-.49-.24-1.056-.24-1.696 0-1.056.133-2.027.4-2.912.277-.896.656-1.675 1.136-2.336a6.025 6.025 0 011.696-1.6 5.37 5.37 0 012.144-.784l.272 1.024a4.686 4.686 0 00-1.632.608 5.342 5.342 0 00-1.296 1.104 6.005 6.005 0 00-.896 1.472 6.679 6.679 0 00-.48 1.68c.17-.288.458-.55.864-.784.405-.245.901-.368 1.488-.368 1.002 0 1.786.288 2.352.864.576.576.864 1.381.864 2.416zm-1.328.128c0-.757-.176-1.328-.528-1.712-.352-.384-.896-.576-1.632-.576-.523 0-.976.128-1.36.384-.374.256-.635.544-.784.864a2.6 2.6 0 00-.032.368v.32c0 .33.042.656.128.976.096.32.24.608.432.864.192.245.426.448.704.608.288.15.624.224 1.008.224a1.977 1.977 0 001.488-.656c.181-.203.32-.448.416-.736.106-.288.16-.597.16-.928z" fill="#000"/><path stroke="#DDD" d="M355.5 31.5h71v31h-71z"/><path d="M383.892 51.072c.736 0 1.344-.213 1.824-.64.48-.427.72-1.045.72-1.856 0-.779-.24-1.36-.72-1.744-.469-.384-1.12-.576-1.952-.576l-1.344.08V40.8h4.992v1.184h-3.792v3.184l.688-.032c1.056.01 1.888.304 2.496.88.608.576.912 1.403.912 2.48 0 .597-.101 1.13-.304 1.6-.202.459-.48.843-.832 1.152a3.43 3.43 0 01-1.216.704c-.469.16-.97.24-1.504.24a7.81 7.81 0 01-1.216-.08 4.932 4.932 0 01-.928-.24l.336-1.088c.246.096.507.17.784.224.288.043.64.064 1.056.064zm6.095.24c0-.256.085-.464.256-.624a.92.92 0 01.656-.24c.331 0 .597.117.8.352.213.235.32.576.32 1.024 0 .384-.053.72-.16 1.008a2.454 2.454 0 01-.416.736 2.283 2.283 0 01-.56.512c-.203.139-.405.24-.608.304l-.4-.624c.384-.15.667-.384.848-.704.192-.31.288-.624.288-.944a.863.863 0 01-.272.048.77.77 0 01-.544-.208c-.139-.15-.208-.363-.208-.64zm6.218-.24c.736 0 1.344-.213 1.824-.64.48-.427.72-1.045.72-1.856 0-.779-.24-1.36-.72-1.744-.469-.384-1.12-.576-1.952-.576l-1.344.08V40.8h4.992v1.184h-3.792v3.184l.688-.032c1.056.01 1.888.304 2.496.88.608.576.912 1.403.912 2.48 0 .597-.101 1.13-.304 1.6a3.27 3.27 0 01-.832 1.152c-.341.31-.747.544-1.216.704a4.63 4.63 0 01-1.504.24 7.81 7.81 0 01-1.216-.08 4.912 4.912 0 01-.928-.24l.336-1.088c.245.096.507.17.784.224.288.043.64.064 1.056.064z" fill="#000"/><path stroke="#DDD" d="M426.5 31.5h71v31h-71z"/><path d="M465.513 48.624c0 .49-.075.955-.224 1.392-.15.427-.368.805-.656 1.136-.288.32-.646.576-1.072.768a3.693 3.693 0 01-1.456.272 3.843 3.843 0 01-1.44-.256 3.031 3.031 0 01-1.104-.752 3.565 3.565 0 01-.72-1.248c-.16-.49-.24-1.056-.24-1.696 0-1.056.133-2.027.4-2.912.277-.896.656-1.675 1.136-2.336a6.025 6.025 0 011.696-1.6 5.37 5.37 0 012.144-.784l.272 1.024a4.686 4.686 0 00-1.632.608 5.342 5.342 0 00-1.296 1.104 6.005 6.005 0 00-.896 1.472 6.679 6.679 0 00-.48 1.68c.17-.288.458-.55.864-.784.405-.245.901-.368 1.488-.368 1.002 0 1.786.288 2.352.864.576.576.864 1.381.864 2.416zm-1.328.128c0-.757-.176-1.328-.528-1.712-.352-.384-.896-.576-1.632-.576-.523 0-.976.128-1.36.384-.374.256-.635.544-.784.864a2.6 2.6 0 00-.032.368v.32c0 .33.042.656.128.976.096.32.24.608.432.864.192.245.426.448.704.608.288.15.624.224 1.008.224a1.977 1.977 0 001.488-.656c.181-.203.32-.448.416-.736.106-.288.16-.597.16-.928z" fill="#000"/><path stroke="#DDD" d="M497.5 31.5h71v31h-71z"/><path d="M530.356 48.624c0 .49-.074.955-.224 1.392a3.438 3.438 0 01-.656 1.136c-.288.32-.645.576-1.072.768a3.695 3.695 0 01-1.456.272 3.85 3.85 0 01-1.44-.256 3.048 3.048 0 01-1.104-.752 3.596 3.596 0 01-.72-1.248c-.16-.49-.24-1.056-.24-1.696 0-1.056.134-2.027.4-2.912.278-.896.656-1.675 1.136-2.336a6.038 6.038 0 011.696-1.6 5.375 5.375 0 012.144-.784l.272 1.024a4.7 4.7 0 00-1.632.608 5.38 5.38 0 00-1.296 1.104 6.067 6.067 0 00-.896 1.472 6.763 6.763 0 00-.48 1.68c.171-.288.459-.55.864-.784.406-.245.902-.368 1.488-.368 1.003 0 1.787.288 2.352.864.576.576.864 1.381.864 2.416zm-1.328.128c0-.757-.176-1.328-.528-1.712-.352-.384-.896-.576-1.632-.576-.522 0-.976.128-1.36.384-.373.256-.634.544-.784.864-.021.15-.032.272-.032.368v.32c0 .33.043.656.128.976.096.32.24.608.432.864.192.245.427.448.704.608.288.15.624.224 1.008.224.31 0 .587-.059.832-.176.256-.117.475-.277.656-.48a2.06 2.06 0 00.416-.736c.107-.288.16-.597.16-.928zm2.959 2.56c0-.256.085-.464.256-.624a.92.92 0 01.656-.24c.331 0 .597.117.8.352.213.235.32.576.32 1.024 0 .384-.053.72-.16 1.008a2.454 2.454 0 01-.416.736 2.283 2.283 0 01-.56.512c-.203.139-.405.24-.608.304l-.4-.624c.384-.15.667-.384.848-.704.192-.31.288-.624.288-.944a.863.863 0 01-.272.048.77.77 0 01-.544-.208c-.139-.15-.208-.363-.208-.64zm6.218-.24c.736 0 1.344-.213 1.824-.64.48-.427.72-1.045.72-1.856 0-.779-.24-1.36-.72-1.744-.469-.384-1.12-.576-1.952-.576l-1.344.08V40.8h4.992v1.184h-3.792v3.184l.688-.032c1.056.01 1.888.304 2.496.88.608.576.912 1.403.912 2.48 0 .597-.101 1.13-.304 1.6a3.27 3.27 0 01-.832 1.152c-.341.31-.747.544-1.216.704a4.63 4.63 0 01-1.504.24 7.81 7.81 0 01-1.216-.08 4.912 4.912 0 01-.928-.24l.336-1.088c.245.096.507.17.784.224.288.043.64.064 1.056.064z" fill="#000"/><path stroke="#DDD" d="M568.5 31.5h71v31h-71z"/><path d="M601.401 52l4.016-9.376.704-.784-.944.144h-4.56V40.8h6.688v.432L602.697 52h-1.296z" fill="#000"/><path stroke="#DDD" d="M.5 31.5h71v31H.5z"/><path d="M15.04 40.8h2.08v7.232c0 .725-.096 1.35-.288 1.872-.192.523-.459.955-.8 1.296a3.088 3.088 0 01-1.248.752c-.49.16-1.03.24-1.616.24-2.837 0-4.256-1.296-4.256-3.888V40.8h2.192v7.072c0 .437.037.81.112 1.12.085.299.213.544.384.736.17.181.384.315.64.4.256.075.555.112.896.112.672 0 1.157-.187 1.456-.56.299-.373.448-.976.448-1.808V40.8zm6.72 6.416h-.577V52h-2.192V40.8h2.192v4.96l.512-.224 3.088-4.736h2.496l-3.264 4.704-.864.608.896.624L27.775 52h-2.704l-3.312-4.784z" fill="#000"/><path stroke="#DDD" d="M71.5.5h71v31h-71z"/><path d="M111.025 17.56h-1.888V21h-1.248v-3.44h-4.928v-.528l5.312-7.408h.864v6.816h1.888v1.12zm-3.136-4.608l.16-1.312h-.048l-.56 1.088-2.256 3.056-.768.784 1.12-.128h2.352v-3.488z" fill="#000"/><path stroke="#DDD" d="M142.5.5h71v31h-71z"/><path d="M175.868 17.56h-1.888V21h-1.248v-3.44h-4.928v-.528l5.312-7.408h.864v6.816h1.888v1.12zm-3.136-4.608l.16-1.312h-.048l-.56 1.088-2.256 3.056-.768.784 1.12-.128h2.352v-3.488zm4.255 7.36c0-.256.085-.464.256-.624a.92.92 0 01.656-.24c.331 0 .597.117.8.352.213.235.32.576.32 1.024 0 .384-.053.72-.16 1.008a2.454 2.454 0 01-.416.736 2.283 2.283 0 01-.56.512c-.203.139-.405.24-.608.304l-.4-.624c.384-.15.667-.384.848-.704.192-.31.288-.624.288-.944a.863.863 0 01-.272.048.77.77 0 01-.544-.208c-.139-.15-.208-.363-.208-.64zm6.218-.24c.736 0 1.344-.213 1.824-.64.48-.427.72-1.045.72-1.856 0-.779-.24-1.36-.72-1.744-.469-.384-1.12-.576-1.952-.576l-1.344.08V9.8h4.992v1.184h-3.792v3.184l.688-.032c1.056.01 1.888.304 2.496.88.608.576.912 1.403.912 2.48 0 .597-.101 1.13-.304 1.6a3.27 3.27 0 01-.832 1.152c-.341.31-.747.544-1.216.704a4.63 4.63 0 01-1.504.24 7.81 7.81 0 01-1.216-.08 4.912 4.912 0 01-.928-.24l.336-1.088c.245.096.507.17.784.224.288.043.64.064 1.056.064z" fill="#000"/><path stroke="#DDD" d="M213.5.5h71v31h-71z"/><path d="M248.049 20.072c.736 0 1.344-.213 1.824-.64.48-.427.72-1.045.72-1.856 0-.779-.24-1.36-.72-1.744-.47-.384-1.12-.576-1.952-.576l-1.344.08V9.8h4.992v1.184h-3.792v3.184l.688-.032c1.056.01 1.888.304 2.496.88.608.576.912 1.403.912 2.48 0 .597-.102 1.13-.304 1.6a3.27 3.27 0 01-.832 1.152c-.342.31-.747.544-1.216.704-.47.16-.971.24-1.504.24-.48 0-.886-.027-1.216-.08a4.912 4.912 0 01-.928-.24l.336-1.088c.245.096.506.17.784.224.288.043.64.064 1.056.064z" fill="#000"/><path stroke="#DDD" d="M284.5.5h71v31h-71z"/><path d="M312.892 20.072c.736 0 1.344-.213 1.824-.64.48-.427.72-1.045.72-1.856 0-.779-.24-1.36-.72-1.744-.469-.384-1.12-.576-1.952-.576l-1.344.08V9.8h4.992v1.184h-3.792v3.184l.688-.032c1.056.01 1.888.304 2.496.88.608.576.912 1.403.912 2.48 0 .597-.101 1.13-.304 1.6-.202.459-.48.843-.832 1.152a3.43 3.43 0 01-1.216.704c-.469.16-.97.24-1.504.24a7.81 7.81 0 01-1.216-.08 4.932 4.932 0 01-.928-.24l.336-1.088c.246.096.507.17.784.224.288.043.64.064 1.056.064zm6.095.24c0-.256.085-.464.256-.624a.92.92 0 01.656-.24c.331 0 .597.117.8.352.213.235.32.576.32 1.024 0 .384-.053.72-.16 1.008a2.454 2.454 0 01-.416.736 2.283 2.283 0 01-.56.512c-.203.139-.405.24-.608.304l-.4-.624c.384-.15.667-.384.848-.704.192-.31.288-.624.288-.944a.863.863 0 01-.272.048.77.77 0 01-.544-.208c-.139-.15-.208-.363-.208-.64zm6.218-.24c.736 0 1.344-.213 1.824-.64.48-.427.72-1.045.72-1.856 0-.779-.24-1.36-.72-1.744-.469-.384-1.12-.576-1.952-.576l-1.344.08V9.8h4.992v1.184h-3.792v3.184l.688-.032c1.056.01 1.888.304 2.496.88.608.576.912 1.403.912 2.48 0 .597-.101 1.13-.304 1.6a3.27 3.27 0 01-.832 1.152c-.341.31-.747.544-1.216.704a4.63 4.63 0 01-1.504.24 7.81 7.81 0 01-1.216-.08 4.912 4.912 0 01-.928-.24l.336-1.088c.245.096.507.17.784.224.288.043.64.064 1.056.064z" fill="#000"/><path stroke="#DDD" d="M355.5.5h71v31h-71z"/><path d="M394.513 17.624c0 .49-.075.955-.224 1.392-.15.427-.368.805-.656 1.136-.288.32-.646.576-1.072.768a3.693 3.693 0 01-1.456.272 3.843 3.843 0 01-1.44-.256 3.031 3.031 0 01-1.104-.752 3.565 3.565 0 01-.72-1.248c-.16-.49-.24-1.056-.24-1.696 0-1.056.133-2.027.4-2.912.277-.896.656-1.675 1.136-2.336a6.025 6.025 0 011.696-1.6 5.37 5.37 0 012.144-.784l.272 1.024a4.686 4.686 0 00-1.632.608 5.342 5.342 0 00-1.296 1.104 6.005 6.005 0 00-.896 1.472 6.679 6.679 0 00-.48 1.68c.17-.288.458-.55.864-.784.405-.245.901-.368 1.488-.368 1.002 0 1.786.288 2.352.864.576.576.864 1.381.864 2.416zm-1.328.128c0-.757-.176-1.328-.528-1.712-.352-.384-.896-.576-1.632-.576-.523 0-.976.128-1.36.384-.374.256-.635.544-.784.864a2.6 2.6 0 00-.032.368v.32c0 .33.042.656.128.976.096.32.24.608.432.864.192.245.426.448.704.608.288.15.624.224 1.008.224a1.977 1.977 0 001.488-.656c.181-.203.32-.448.416-.736.106-.288.16-.597.16-.928z" fill="#000"/><path stroke="#DDD" d="M426.5.5h71v31h-71z"/><path d="M459.356 17.624c0 .49-.074.955-.224 1.392a3.438 3.438 0 01-.656 1.136c-.288.32-.645.576-1.072.768a3.695 3.695 0 01-1.456.272 3.85 3.85 0 01-1.44-.256 3.048 3.048 0 01-1.104-.752 3.596 3.596 0 01-.72-1.248c-.16-.49-.24-1.056-.24-1.696 0-1.056.134-2.027.4-2.912.278-.896.656-1.675 1.136-2.336a6.038 6.038 0 011.696-1.6 5.375 5.375 0 012.144-.784l.272 1.024a4.7 4.7 0 00-1.632.608 5.38 5.38 0 00-1.296 1.104 6.067 6.067 0 00-.896 1.472 6.763 6.763 0 00-.48 1.68c.171-.288.459-.55.864-.784.406-.245.902-.368 1.488-.368 1.003 0 1.787.288 2.352.864.576.576.864 1.381.864 2.416zm-1.328.128c0-.757-.176-1.328-.528-1.712-.352-.384-.896-.576-1.632-.576-.522 0-.976.128-1.36.384-.373.256-.634.544-.784.864-.021.15-.032.272-.032.368v.32c0 .33.043.656.128.976.096.32.24.608.432.864.192.245.427.448.704.608.288.15.624.224 1.008.224.31 0 .587-.059.832-.176.256-.117.475-.277.656-.48a2.06 2.06 0 00.416-.736c.107-.288.16-.597.16-.928zm2.959 2.56c0-.256.085-.464.256-.624a.92.92 0 01.656-.24c.331 0 .597.117.8.352.213.235.32.576.32 1.024 0 .384-.053.72-.16 1.008a2.454 2.454 0 01-.416.736 2.283 2.283 0 01-.56.512c-.203.139-.405.24-.608.304l-.4-.624c.384-.15.667-.384.848-.704.192-.31.288-.624.288-.944a.863.863 0 01-.272.048.77.77 0 01-.544-.208c-.139-.15-.208-.363-.208-.64zm6.218-.24c.736 0 1.344-.213 1.824-.64.48-.427.72-1.045.72-1.856 0-.779-.24-1.36-.72-1.744-.469-.384-1.12-.576-1.952-.576l-1.344.08V9.8h4.992v1.184h-3.792v3.184l.688-.032c1.056.01 1.888.304 2.496.88.608.576.912 1.403.912 2.48 0 .597-.101 1.13-.304 1.6a3.27 3.27 0 01-.832 1.152c-.341.31-.747.544-1.216.704a4.63 4.63 0 01-1.504.24 7.81 7.81 0 01-1.216-.08 4.912 4.912 0 01-.928-.24l.336-1.088c.245.096.507.17.784.224.288.043.64.064 1.056.064z" fill="#000"/><path stroke="#DDD" d="M497.5.5h71v31h-71z"/><path d="M530.401 21l4.016-9.376.704-.784-.944.144h-4.56V9.8h6.688v.432L531.697 21h-1.296z" fill="#000"/><path stroke="#DDD" d="M568.5.5h71v31h-71z"/><path d="M596.127 21l4.016-9.376.704-.784-.944.144h-4.56V9.8h6.688v.432L597.423 21h-1.296zm5.977-.688c0-.256.086-.464.256-.624.171-.16.39-.24.656-.24.331 0 .598.117.8.352.214.235.32.576.32 1.024 0 .384-.053.72-.16 1.008a2.432 2.432 0 01-.416.736c-.17.213-.357.384-.56.512a2.3 2.3 0 01-.608.304l-.4-.624c.384-.15.667-.384.848-.704.192-.31.288-.624.288-.944a.858.858 0 01-.272.048.772.772 0 01-.544-.208c-.138-.15-.208-.363-.208-.64zm6.218-.24c.736 0 1.344-.213 1.824-.64.48-.427.72-1.045.72-1.856 0-.779-.24-1.36-.72-1.744-.469-.384-1.12-.576-1.952-.576l-1.344.08V9.8h4.992v1.184h-3.792v3.184l.688-.032c1.056.01 1.888.304 2.496.88.608.576.912 1.403.912 2.48 0 .597-.101 1.13-.304 1.6a3.27 3.27 0 01-.832 1.152c-.341.31-.747.544-1.216.704a4.63 4.63 0 01-1.504.24 7.81 7.81 0 01-1.216-.08 4.912 4.912 0 01-.928-.24l.336-1.088c.245.096.507.17.784.224.288.043.64.064 1.056.064z" fill="#000"/><path stroke="#DDD" d="M.5.5h71v31H.5z"/><path d="M15.04 9.8h2.08v7.232c0 .725-.096 1.35-.288 1.872-.192.523-.459.955-.8 1.296a3.088 3.088 0 01-1.248.752c-.49.16-1.03.24-1.616.24-2.837 0-4.256-1.296-4.256-3.888V9.8h2.192v7.072c0 .437.037.81.112 1.12.085.299.213.544.384.736.17.181.384.315.64.4.256.075.555.112.896.112.672 0 1.157-.187 1.456-.56.299-.373.448-.976.448-1.808V9.8zm8.783 8.192c0-.341-.128-.619-.384-.832a3.76 3.76 0 00-.944-.576 20.04 20.04 0 00-1.232-.544 7.295 7.295 0 01-1.232-.688 3.771 3.771 0 01-.944-1.024c-.245-.405-.368-.923-.368-1.552 0-.544.09-1.013.272-1.408.182-.405.438-.741.768-1.008a3.416 3.416 0 011.2-.592 5.71 5.71 0 011.536-.192c.65 0 1.264.059 1.84.176.576.107 1.05.267 1.424.48l-.688 1.84c-.234-.15-.586-.283-1.056-.4a5.76 5.76 0 00-1.52-.192c-.512 0-.906.101-1.184.304a.972.972 0 00-.4.816c0 .32.123.587.368.8.256.213.57.41.944.592.384.181.795.368 1.232.56.448.192.859.427 1.232.704.384.267.699.603.944 1.008.256.395.384.89.384 1.488 0 .597-.101 1.115-.304 1.552-.192.427-.47.784-.832 1.072a3.435 3.435 0 01-1.296.64 6.233 6.233 0 01-1.664.208c-.8 0-1.504-.075-2.112-.224-.608-.15-1.056-.299-1.344-.448l.704-1.872c.118.064.267.133.448.208.192.075.406.144.64.208.235.064.48.117.736.16.267.043.539.064.816.064.65 0 1.147-.107 1.488-.32.352-.224.528-.56.528-1.008z" fill="#000"/></svg>