<svg width="640" height="94" viewBox="0 0 640 94" fill="none" xmlns="http://www.w3.org/2000/svg">
<rect x="0.5" y="62.5" width="71" height="31" stroke="#DDDDDD"/>
<path d="M8.96 71.8H15.6V73.752H11.152V76.36H15.2V78.312H11.152V81.048H15.68V83H8.96V71.8ZM23.3994 71.8H25.4794V79.032C25.4794 79.7573 25.3834 80.3813 25.1914 80.904C24.9994 81.4267 24.7327 81.8587 24.3914 82.2C24.05 82.5413 23.634 82.792 23.1434 82.952C22.6527 83.112 22.114 83.192 21.5274 83.192C18.69 83.192 17.2714 81.896 17.2714 79.304V71.8H19.4634V78.872C19.4634 79.3093 19.5007 79.6827 19.5754 79.992C19.6607 80.2907 19.7887 80.536 19.9594 80.728C20.13 80.9093 20.3434 81.0427 20.5994 81.128C20.8554 81.2027 21.154 81.24 21.4954 81.24C22.1674 81.24 22.6527 81.0533 22.9514 80.68C23.25 80.3067 23.3994 79.704 23.3994 78.872V71.8Z" fill="black"/>
<rect x="71.5" y="62.5" width="71" height="31" stroke="#DDDDDD"/>
<path d="M102.025 82.072C102.388 82.072 102.724 82.0187 103.033 81.912C103.343 81.8053 103.609 81.6507 103.833 81.448C104.057 81.2347 104.233 80.984 104.361 80.696C104.489 80.408 104.553 80.0933 104.553 79.752C104.553 79.0053 104.329 78.4507 103.881 78.088C103.444 77.7253 102.836 77.544 102.057 77.544H100.873V77.08L103.177 73.528L103.913 72.824L102.873 72.984H99.7053V71.8H105.417V72.264L102.873 76.088L102.313 76.552V76.584L102.857 76.472C103.284 76.4827 103.679 76.5627 104.041 76.712C104.404 76.8507 104.719 77.0587 104.985 77.336C105.252 77.6027 105.46 77.928 105.609 78.312C105.759 78.6853 105.833 79.112 105.833 79.592C105.833 80.168 105.732 80.68 105.529 81.128C105.327 81.576 105.049 81.9547 104.697 82.264C104.356 82.5627 103.951 82.792 103.481 82.952C103.012 83.112 102.516 83.192 101.993 83.192C101.513 83.192 101.081 83.1547 100.697 83.08C100.313 83.0053 99.9773 82.9093 99.6893 82.792L100.025 81.656C100.271 81.7733 100.559 81.8747 100.889 81.96C101.231 82.0347 101.609 82.072 102.025 82.072ZM114.872 79.624C114.872 80.1147 114.797 80.5787 114.648 81.016C114.499 81.4427 114.28 81.8213 113.992 82.152C113.704 82.472 113.347 82.728 112.92 82.92C112.493 83.1013 112.008 83.192 111.464 83.192C110.931 83.192 110.451 83.1067 110.024 82.936C109.597 82.7653 109.229 82.5147 108.92 82.184C108.611 81.8427 108.371 81.4267 108.2 80.936C108.04 80.4453 107.96 79.88 107.96 79.24C107.96 78.184 108.093 77.2133 108.36 76.328C108.637 75.432 109.016 74.6533 109.496 73.992C109.976 73.3307 110.541 72.7973 111.192 72.392C111.853 71.976 112.568 71.7147 113.336 71.608L113.608 72.632C113.011 72.7387 112.467 72.9413 111.976 73.24C111.485 73.5387 111.053 73.9067 110.68 74.344C110.317 74.7813 110.019 75.272 109.784 75.816C109.549 76.36 109.389 76.92 109.304 77.496C109.475 77.208 109.763 76.9467 110.168 76.712C110.573 76.4667 111.069 76.344 111.656 76.344C112.659 76.344 113.443 76.632 114.008 77.208C114.584 77.784 114.872 78.5893 114.872 79.624ZM113.544 79.752C113.544 78.9947 113.368 78.424 113.016 78.04C112.664 77.656 112.12 77.464 111.384 77.464C110.861 77.464 110.408 77.592 110.024 77.848C109.651 78.104 109.389 78.392 109.24 78.712C109.219 78.8613 109.208 78.984 109.208 79.08C109.208 79.176 109.208 79.2827 109.208 79.4C109.208 79.7307 109.251 80.056 109.336 80.376C109.432 80.696 109.576 80.984 109.768 81.24C109.96 81.4853 110.195 81.688 110.472 81.848C110.76 81.9973 111.096 82.072 111.48 82.072C111.789 82.072 112.067 82.0133 112.312 81.896C112.568 81.7787 112.787 81.6187 112.968 81.416C113.149 81.2133 113.288 80.968 113.384 80.68C113.491 80.392 113.544 80.0827 113.544 79.752Z" fill="black"/>
<rect x="142.5" y="62.5" width="71" height="31" stroke="#DDDDDD"/>
<path d="M173.025 82.072C173.388 82.072 173.724 82.0187 174.033 81.912C174.343 81.8053 174.609 81.6507 174.833 81.448C175.057 81.2347 175.233 80.984 175.361 80.696C175.489 80.408 175.553 80.0933 175.553 79.752C175.553 79.0053 175.329 78.4507 174.881 78.088C174.444 77.7253 173.836 77.544 173.057 77.544H171.873V77.08L174.177 73.528L174.913 72.824L173.873 72.984H170.705V71.8H176.417V72.264L173.873 76.088L173.313 76.552V76.584L173.857 76.472C174.284 76.4827 174.679 76.5627 175.041 76.712C175.404 76.8507 175.719 77.0587 175.985 77.336C176.252 77.6027 176.46 77.928 176.609 78.312C176.759 78.6853 176.833 79.112 176.833 79.592C176.833 80.168 176.732 80.68 176.529 81.128C176.327 81.576 176.049 81.9547 175.697 82.264C175.356 82.5627 174.951 82.792 174.481 82.952C174.012 83.112 173.516 83.192 172.993 83.192C172.513 83.192 172.081 83.1547 171.697 83.08C171.313 83.0053 170.977 82.9093 170.689 82.792L171.025 81.656C171.271 81.7733 171.559 81.8747 171.889 81.96C172.231 82.0347 172.609 82.072 173.025 82.072ZM179.76 83L183.776 73.624L184.48 72.84L183.536 72.984H178.976V71.8H185.664V72.232L181.056 83H179.76Z" fill="black"/>
<rect x="213.5" y="62.5" width="71" height="31" stroke="#DDDDDD"/>
<path d="M244.025 82.072C244.388 82.072 244.724 82.0187 245.033 81.912C245.343 81.8053 245.609 81.6507 245.833 81.448C246.057 81.2347 246.233 80.984 246.361 80.696C246.489 80.408 246.553 80.0933 246.553 79.752C246.553 79.0053 246.329 78.4507 245.881 78.088C245.444 77.7253 244.836 77.544 244.057 77.544H242.873V77.08L245.177 73.528L245.913 72.824L244.873 72.984H241.705V71.8H247.417V72.264L244.873 76.088L244.313 76.552V76.584L244.857 76.472C245.284 76.4827 245.679 76.5627 246.041 76.712C246.404 76.8507 246.719 77.0587 246.985 77.336C247.252 77.6027 247.46 77.928 247.609 78.312C247.759 78.6853 247.833 79.112 247.833 79.592C247.833 80.168 247.732 80.68 247.529 81.128C247.327 81.576 247.049 81.9547 246.697 82.264C246.356 82.5627 245.951 82.792 245.481 82.952C245.012 83.112 244.516 83.192 243.993 83.192C243.513 83.192 243.081 83.1547 242.697 83.08C242.313 83.0053 241.977 82.9093 241.689 82.792L242.025 81.656C242.271 81.7733 242.559 81.8747 242.889 81.96C243.231 82.0347 243.609 82.072 244.025 82.072ZM250.088 80.328C250.088 79.656 250.264 79.0747 250.616 78.584C250.968 78.0827 251.517 77.6293 252.264 77.224C251.997 77.064 251.747 76.8987 251.512 76.728C251.288 76.5467 251.085 76.344 250.904 76.12C250.733 75.896 250.595 75.6453 250.488 75.368C250.392 75.0907 250.344 74.7707 250.344 74.408C250.344 73.992 250.413 73.6133 250.552 73.272C250.701 72.9307 250.909 72.6373 251.176 72.392C251.453 72.1467 251.779 71.9547 252.152 71.816C252.536 71.6773 252.968 71.608 253.448 71.608C253.896 71.608 254.301 71.672 254.664 71.8C255.027 71.928 255.331 72.104 255.576 72.328C255.832 72.552 256.029 72.8187 256.168 73.128C256.307 73.4373 256.376 73.7787 256.376 74.152C256.376 74.76 256.237 75.2987 255.96 75.768C255.683 76.2267 255.224 76.68 254.584 77.128C254.861 77.288 255.123 77.464 255.368 77.656C255.624 77.848 255.843 78.0613 256.024 78.296C256.216 78.5307 256.365 78.7973 256.472 79.096C256.579 79.384 256.632 79.7147 256.632 80.088C256.632 80.5467 256.557 80.968 256.408 81.352C256.259 81.7253 256.04 82.0507 255.752 82.328C255.464 82.5947 255.112 82.808 254.696 82.968C254.28 83.1173 253.805 83.192 253.272 83.192C252.76 83.192 252.307 83.1173 251.912 82.968C251.517 82.8187 251.181 82.616 250.904 82.36C250.637 82.104 250.435 81.8053 250.296 81.464C250.157 81.112 250.088 80.7333 250.088 80.328ZM255.384 80.168C255.384 79.848 255.32 79.5707 255.192 79.336C255.064 79.0907 254.893 78.872 254.68 78.68C254.477 78.4773 254.243 78.296 253.976 78.136C253.709 77.976 253.432 77.8213 253.144 77.672C252.493 78.0347 252.029 78.44 251.752 78.888C251.475 79.336 251.336 79.7627 251.336 80.168C251.336 80.424 251.379 80.6693 251.464 80.904C251.549 81.1387 251.677 81.3413 251.848 81.512C252.019 81.6827 252.227 81.8213 252.472 81.928C252.728 82.024 253.021 82.072 253.352 82.072C253.619 82.072 253.875 82.0347 254.12 81.96C254.365 81.8747 254.579 81.7573 254.76 81.608C254.952 81.448 255.101 81.2507 255.208 81.016C255.325 80.7707 255.384 80.488 255.384 80.168ZM251.592 74.376C251.592 74.6747 251.651 74.9413 251.768 75.176C251.885 75.4 252.04 75.6027 252.232 75.784C252.435 75.9653 252.664 76.136 252.92 76.296C253.176 76.4453 253.443 76.5893 253.72 76.728C254.2 76.3547 254.552 75.9867 254.776 75.624C255.011 75.2613 255.128 74.8613 255.128 74.424C255.128 73.88 254.957 73.464 254.616 73.176C254.285 72.8773 253.885 72.728 253.416 72.728C253.128 72.728 252.872 72.776 252.648 72.872C252.424 72.968 252.232 73.0907 252.072 73.24C251.912 73.3893 251.789 73.5653 251.704 73.768C251.629 73.96 251.592 74.1627 251.592 74.376Z" fill="black"/>
<rect x="284.5" y="62.5" width="71" height="31" stroke="#DDDDDD"/>
<path d="M315.025 82.072C315.388 82.072 315.724 82.0187 316.033 81.912C316.343 81.8053 316.609 81.6507 316.833 81.448C317.057 81.2347 317.233 80.984 317.361 80.696C317.489 80.408 317.553 80.0933 317.553 79.752C317.553 79.0053 317.329 78.4507 316.881 78.088C316.444 77.7253 315.836 77.544 315.057 77.544H313.873V77.08L316.177 73.528L316.913 72.824L315.873 72.984H312.705V71.8H318.417V72.264L315.873 76.088L315.313 76.552V76.584L315.857 76.472C316.284 76.4827 316.679 76.5627 317.041 76.712C317.404 76.8507 317.719 77.0587 317.985 77.336C318.252 77.6027 318.46 77.928 318.609 78.312C318.759 78.6853 318.833 79.112 318.833 79.592C318.833 80.168 318.732 80.68 318.529 81.128C318.327 81.576 318.049 81.9547 317.697 82.264C317.356 82.5627 316.951 82.792 316.481 82.952C316.012 83.112 315.516 83.192 314.993 83.192C314.513 83.192 314.081 83.1547 313.697 83.08C313.313 83.0053 312.977 82.9093 312.689 82.792L313.025 81.656C313.271 81.7733 313.559 81.8747 313.889 81.96C314.231 82.0347 314.609 82.072 315.025 82.072ZM320.832 75.192C320.832 74.68 320.907 74.2053 321.056 73.768C321.205 73.3307 321.424 72.952 321.712 72.632C322 72.312 322.357 72.0613 322.784 71.88C323.221 71.6987 323.728 71.608 324.304 71.608C325.392 71.608 326.24 71.96 326.848 72.664C327.456 73.368 327.76 74.36 327.76 75.64C327.76 76.8453 327.621 77.9013 327.344 78.808C327.077 79.704 326.704 80.4613 326.224 81.08C325.744 81.6987 325.173 82.184 324.512 82.536C323.861 82.8773 323.152 83.096 322.384 83.192L322.096 82.168C322.715 82.072 323.269 81.8907 323.76 81.624C324.261 81.3573 324.688 81.0213 325.04 80.616C325.403 80.2107 325.696 79.752 325.92 79.24C326.144 78.7173 326.299 78.152 326.384 77.544C326.096 77.8853 325.776 78.1253 325.424 78.264C325.083 78.392 324.629 78.456 324.064 78.456C323.627 78.456 323.211 78.3867 322.816 78.248C322.432 78.0987 322.091 77.8853 321.792 77.608C321.493 77.3307 321.259 76.9893 321.088 76.584C320.917 76.1787 320.832 75.7147 320.832 75.192ZM322.16 75.064C322.16 75.8213 322.357 76.392 322.752 76.776C323.157 77.1493 323.685 77.336 324.336 77.336C324.859 77.336 325.307 77.2507 325.68 77.08C326.053 76.9093 326.32 76.6853 326.48 76.408C326.501 76.2693 326.512 76.1467 326.512 76.04C326.512 75.9333 326.512 75.8213 326.512 75.704C326.512 75.32 326.464 74.952 326.368 74.6C326.283 74.2373 326.149 73.9173 325.968 73.64C325.787 73.352 325.547 73.128 325.248 72.968C324.96 72.808 324.619 72.728 324.224 72.728C323.573 72.728 323.067 72.936 322.704 73.352C322.341 73.7573 322.16 74.328 322.16 75.064Z" fill="black"/>
<rect x="355.5" y="62.5" width="71" height="31" stroke="#DDDDDD"/>
<path d="M390.665 79.56H388.777V83H387.529V79.56H382.601V79.032L387.913 71.624H388.777V78.44H390.665V79.56ZM387.529 74.952L387.689 73.64H387.641L387.081 74.728L384.825 77.784L384.057 78.568L385.177 78.44H387.529V74.952ZM391.688 77.4C391.688 75.48 391.997 74.0347 392.616 73.064C393.245 72.0933 394.157 71.608 395.352 71.608C396.643 71.608 397.576 72.088 398.152 73.048C398.739 73.9973 399.032 75.448 399.032 77.4C399.032 79.32 398.717 80.7653 398.088 81.736C397.469 82.7067 396.557 83.192 395.352 83.192C394.083 83.192 393.155 82.6853 392.568 81.672C391.981 80.6587 391.688 79.2347 391.688 77.4ZM393.016 77.4C393.016 78.0933 393.059 78.728 393.144 79.304C393.24 79.8693 393.384 80.36 393.576 80.776C393.768 81.1813 394.008 81.5013 394.296 81.736C394.595 81.96 394.947 82.072 395.352 82.072C396.163 82.072 396.755 81.6987 397.128 80.952C397.512 80.1947 397.704 79.0107 397.704 77.4C397.704 76.7173 397.661 76.088 397.576 75.512C397.501 74.936 397.368 74.44 397.176 74.024C396.995 73.608 396.755 73.288 396.456 73.064C396.157 72.84 395.789 72.728 395.352 72.728C394.552 72.728 393.96 73.1067 393.576 73.864C393.203 74.6213 393.016 75.8 393.016 77.4Z" fill="black"/>
<rect x="426.5" y="62.5" width="71" height="31" stroke="#DDDDDD"/>
<path d="M461.665 79.56H459.777V83H458.529V79.56H453.601V79.032L458.913 71.624H459.777V78.44H461.665V79.56ZM458.529 74.952L458.689 73.64H458.641L458.081 74.728L455.825 77.784L455.057 78.568L456.177 78.44H458.529V74.952ZM463.728 81.816H465.968V74.072L466.128 73.128L465.488 73.88L463.728 75.144L463.12 74.328L466.64 71.608H467.216V81.816H469.408V83H463.728V81.816Z" fill="black"/>
<rect x="497.5" y="62.5" width="71" height="31" stroke="#DDDDDD"/>
<path d="M532.665 79.56H530.777V83H529.529V79.56H524.601V79.032L529.913 71.624H530.777V78.44H532.665V79.56ZM529.529 74.952L529.689 73.64H529.641L529.081 74.728L526.825 77.784L526.057 78.568L527.177 78.44H529.529V74.952ZM540.136 74.344C540.136 74.9093 540.029 75.4907 539.816 76.088C539.613 76.6747 539.341 77.2667 539 77.864C538.669 78.4613 538.296 79.048 537.88 79.624C537.464 80.1893 537.048 80.728 536.632 81.24L535.848 81.928V81.992L536.872 81.816H540.36V83H533.992V82.536C534.227 82.2907 534.509 81.9867 534.84 81.624C535.171 81.2613 535.512 80.8613 535.864 80.424C536.227 79.976 536.579 79.5067 536.92 79.016C537.272 78.5147 537.587 78.008 537.864 77.496C538.152 76.984 538.381 76.4773 538.552 75.976C538.723 75.4747 538.808 75 538.808 74.552C538.808 74.0293 538.659 73.5973 538.36 73.256C538.061 72.904 537.608 72.728 537 72.728C536.595 72.728 536.2 72.8133 535.816 72.984C535.432 73.144 535.101 73.3307 534.824 73.544L534.296 72.632C534.669 72.312 535.112 72.0613 535.624 71.88C536.136 71.6987 536.685 71.608 537.272 71.608C537.731 71.608 538.136 71.6773 538.488 71.816C538.84 71.944 539.139 72.1307 539.384 72.376C539.629 72.6213 539.816 72.9147 539.944 73.256C540.072 73.5867 540.136 73.9493 540.136 74.344Z" fill="black"/>
<rect x="568.5" y="62.5" width="71" height="31" stroke="#DDDDDD"/>
<path d="M603.665 79.56H601.777V83H600.529V79.56H595.601V79.032L600.913 71.624H601.777V78.44H603.665V79.56ZM600.529 74.952L600.689 73.64H600.641L600.081 74.728L597.825 77.784L597.057 78.568L598.177 78.44H600.529V74.952ZM607.744 82.072C608.107 82.072 608.443 82.0187 608.752 81.912C609.061 81.8053 609.328 81.6507 609.552 81.448C609.776 81.2347 609.952 80.984 610.08 80.696C610.208 80.408 610.272 80.0933 610.272 79.752C610.272 79.0053 610.048 78.4507 609.6 78.088C609.163 77.7253 608.555 77.544 607.776 77.544H606.592V77.08L608.896 73.528L609.632 72.824L608.592 72.984H605.424V71.8H611.136V72.264L608.592 76.088L608.032 76.552V76.584L608.576 76.472C609.003 76.4827 609.397 76.5627 609.76 76.712C610.123 76.8507 610.437 77.0587 610.704 77.336C610.971 77.6027 611.179 77.928 611.328 78.312C611.477 78.6853 611.552 79.112 611.552 79.592C611.552 80.168 611.451 80.68 611.248 81.128C611.045 81.576 610.768 81.9547 610.416 82.264C610.075 82.5627 609.669 82.792 609.2 82.952C608.731 83.112 608.235 83.192 607.712 83.192C607.232 83.192 606.8 83.1547 606.416 83.08C606.032 83.0053 605.696 82.9093 605.408 82.792L605.744 81.656C605.989 81.7733 606.277 81.8747 606.608 81.96C606.949 82.0347 607.328 82.072 607.744 82.072Z" fill="black"/>
<rect x="71.5" y="31.5" width="71" height="31" stroke="#DDDDDD"/>
<path d="M100.228 51.072C100.591 51.072 100.927 51.0187 101.236 50.912C101.546 50.8053 101.812 50.6507 102.036 50.448C102.26 50.2347 102.436 49.984 102.564 49.696C102.692 49.408 102.756 49.0933 102.756 48.752C102.756 48.0053 102.532 47.4507 102.084 47.088C101.647 46.7253 101.039 46.544 100.26 46.544H99.0764V46.08L101.38 42.528L102.116 41.824L101.076 41.984H97.9084V40.8H103.62V41.264L101.076 45.088L100.516 45.552V45.584L101.06 45.472C101.487 45.4827 101.882 45.5627 102.244 45.712C102.607 45.8507 102.922 46.0587 103.188 46.336C103.455 46.6027 103.663 46.928 103.812 47.312C103.962 47.6853 104.036 48.112 104.036 48.592C104.036 49.168 103.935 49.68 103.732 50.128C103.53 50.576 103.252 50.9547 102.9 51.264C102.559 51.5627 102.154 51.792 101.684 51.952C101.215 52.112 100.719 52.192 100.196 52.192C99.7164 52.192 99.2844 52.1547 98.9004 52.08C98.5164 52.0053 98.1804 51.9093 97.8924 51.792L98.2284 50.656C98.4737 50.7733 98.7617 50.8747 99.0924 50.96C99.4337 51.0347 99.8124 51.072 100.228 51.072ZM105.987 51.312C105.987 51.056 106.072 50.848 106.243 50.688C106.414 50.528 106.632 50.448 106.899 50.448C107.23 50.448 107.496 50.5653 107.699 50.8C107.912 51.0347 108.019 51.376 108.019 51.824C108.019 52.208 107.966 52.544 107.859 52.832C107.752 53.12 107.614 53.3653 107.443 53.568C107.272 53.7813 107.086 53.952 106.883 54.08C106.68 54.2187 106.478 54.32 106.275 54.384L105.875 53.76C106.259 53.6107 106.542 53.376 106.723 53.056C106.915 52.7467 107.011 52.432 107.011 52.112C106.915 52.144 106.824 52.16 106.739 52.16C106.526 52.16 106.344 52.0907 106.195 51.952C106.056 51.8027 105.987 51.5893 105.987 51.312ZM112.205 51.072C112.941 51.072 113.549 50.8587 114.029 50.432C114.509 50.0053 114.749 49.3867 114.749 48.576C114.749 47.7973 114.509 47.216 114.029 46.832C113.56 46.448 112.909 46.256 112.077 46.256L110.733 46.336V40.8H115.725V41.984H111.933V45.168L112.621 45.136C113.677 45.1467 114.509 45.44 115.117 46.016C115.725 46.592 116.029 47.4187 116.029 48.496C116.029 49.0933 115.928 49.6267 115.725 50.096C115.522 50.5547 115.245 50.9387 114.893 51.248C114.552 51.5573 114.146 51.792 113.677 51.952C113.208 52.112 112.706 52.192 112.173 52.192C111.693 52.192 111.288 52.1653 110.957 52.112C110.626 52.0587 110.317 51.9787 110.029 51.872L110.365 50.784C110.61 50.88 110.872 50.9547 111.149 51.008C111.437 51.0507 111.789 51.072 112.205 51.072Z" fill="black"/>
<rect x="142.5" y="31.5" width="71" height="31" stroke="#DDDDDD"/>
<path d="M182.025 48.56H180.137V52H178.889V48.56H173.961V48.032L179.273 40.624H180.137V47.44H182.025V48.56ZM178.889 43.952L179.049 42.64H179.001L178.441 43.728L176.185 46.784L175.417 47.568L176.537 47.44H178.889V43.952Z" fill="black"/>
<rect x="213.5" y="31.5" width="71" height="31" stroke="#DDDDDD"/>
<path d="M246.868 48.56H244.98V52H243.732V48.56H238.804V48.032L244.116 40.624H244.98V47.44H246.868V48.56ZM243.732 43.952L243.892 42.64H243.844L243.284 43.728L241.028 46.784L240.26 47.568L241.38 47.44H243.732V43.952ZM247.987 51.312C247.987 51.056 248.072 50.848 248.243 50.688C248.414 50.528 248.632 50.448 248.899 50.448C249.23 50.448 249.496 50.5653 249.699 50.8C249.912 51.0347 250.019 51.376 250.019 51.824C250.019 52.208 249.966 52.544 249.859 52.832C249.752 53.12 249.614 53.3653 249.443 53.568C249.272 53.7813 249.086 53.952 248.883 54.08C248.68 54.2187 248.478 54.32 248.275 54.384L247.875 53.76C248.259 53.6107 248.542 53.376 248.723 53.056C248.915 52.7467 249.011 52.432 249.011 52.112C248.915 52.144 248.824 52.16 248.739 52.16C248.526 52.16 248.344 52.0907 248.195 51.952C248.056 51.8027 247.987 51.5893 247.987 51.312ZM254.205 51.072C254.941 51.072 255.549 50.8587 256.029 50.432C256.509 50.0053 256.749 49.3867 256.749 48.576C256.749 47.7973 256.509 47.216 256.029 46.832C255.56 46.448 254.909 46.256 254.077 46.256L252.733 46.336V40.8H257.725V41.984H253.933V45.168L254.621 45.136C255.677 45.1467 256.509 45.44 257.117 46.016C257.725 46.592 258.029 47.4187 258.029 48.496C258.029 49.0933 257.928 49.6267 257.725 50.096C257.522 50.5547 257.245 50.9387 256.893 51.248C256.552 51.5573 256.146 51.792 255.677 51.952C255.208 52.112 254.706 52.192 254.173 52.192C253.693 52.192 253.288 52.1653 252.957 52.112C252.626 52.0587 252.317 51.9787 252.029 51.872L252.365 50.784C252.61 50.88 252.872 50.9547 253.149 51.008C253.437 51.0507 253.789 51.072 254.205 51.072Z" fill="black"/>
<rect x="284.5" y="31.5" width="71" height="31" stroke="#DDDDDD"/>
<path d="M323.513 48.624C323.513 49.1147 323.438 49.5787 323.289 50.016C323.139 50.4427 322.921 50.8213 322.633 51.152C322.345 51.472 321.987 51.728 321.561 51.92C321.134 52.1013 320.649 52.192 320.105 52.192C319.571 52.192 319.091 52.1067 318.665 51.936C318.238 51.7653 317.87 51.5147 317.561 51.184C317.251 50.8427 317.011 50.4267 316.841 49.936C316.681 49.4453 316.601 48.88 316.601 48.24C316.601 47.184 316.734 46.2133 317.001 45.328C317.278 44.432 317.657 43.6533 318.137 42.992C318.617 42.3307 319.182 41.7973 319.833 41.392C320.494 40.976 321.209 40.7147 321.977 40.608L322.249 41.632C321.651 41.7387 321.107 41.9413 320.617 42.24C320.126 42.5387 319.694 42.9067 319.321 43.344C318.958 43.7813 318.659 44.272 318.425 44.816C318.19 45.36 318.03 45.92 317.945 46.496C318.115 46.208 318.403 45.9467 318.809 45.712C319.214 45.4667 319.71 45.344 320.297 45.344C321.299 45.344 322.083 45.632 322.649 46.208C323.225 46.784 323.513 47.5893 323.513 48.624ZM322.185 48.752C322.185 47.9947 322.009 47.424 321.657 47.04C321.305 46.656 320.761 46.464 320.025 46.464C319.502 46.464 319.049 46.592 318.665 46.848C318.291 47.104 318.03 47.392 317.881 47.712C317.859 47.8613 317.849 47.984 317.849 48.08C317.849 48.176 317.849 48.2827 317.849 48.4C317.849 48.7307 317.891 49.056 317.977 49.376C318.073 49.696 318.217 49.984 318.409 50.24C318.601 50.4853 318.835 50.688 319.113 50.848C319.401 50.9973 319.737 51.072 320.121 51.072C320.43 51.072 320.707 51.0133 320.953 50.896C321.209 50.7787 321.427 50.6187 321.609 50.416C321.79 50.2133 321.929 49.968 322.025 49.68C322.131 49.392 322.185 49.0827 322.185 48.752Z" fill="black"/>
<rect x="355.5" y="31.5" width="71" height="31" stroke="#DDDDDD"/>
<path d="M383.892 51.072C384.628 51.072 385.236 50.8587 385.716 50.432C386.196 50.0053 386.436 49.3867 386.436 48.576C386.436 47.7973 386.196 47.216 385.716 46.832C385.247 46.448 384.596 46.256 383.764 46.256L382.42 46.336V40.8H387.412V41.984H383.62V45.168L384.308 45.136C385.364 45.1467 386.196 45.44 386.804 46.016C387.412 46.592 387.716 47.4187 387.716 48.496C387.716 49.0933 387.615 49.6267 387.412 50.096C387.21 50.5547 386.932 50.9387 386.58 51.248C386.239 51.5573 385.834 51.792 385.364 51.952C384.895 52.112 384.394 52.192 383.86 52.192C383.38 52.192 382.975 52.1653 382.644 52.112C382.314 52.0587 382.004 51.9787 381.716 51.872L382.052 50.784C382.298 50.88 382.559 50.9547 382.836 51.008C383.124 51.0507 383.476 51.072 383.892 51.072ZM389.987 51.312C389.987 51.056 390.072 50.848 390.243 50.688C390.414 50.528 390.632 50.448 390.899 50.448C391.23 50.448 391.496 50.5653 391.699 50.8C391.912 51.0347 392.019 51.376 392.019 51.824C392.019 52.208 391.966 52.544 391.859 52.832C391.752 53.12 391.614 53.3653 391.443 53.568C391.272 53.7813 391.086 53.952 390.883 54.08C390.68 54.2187 390.478 54.32 390.275 54.384L389.875 53.76C390.259 53.6107 390.542 53.376 390.723 53.056C390.915 52.7467 391.011 52.432 391.011 52.112C390.915 52.144 390.824 52.16 390.739 52.16C390.526 52.16 390.344 52.0907 390.195 51.952C390.056 51.8027 389.987 51.5893 389.987 51.312ZM396.205 51.072C396.941 51.072 397.549 50.8587 398.029 50.432C398.509 50.0053 398.749 49.3867 398.749 48.576C398.749 47.7973 398.509 47.216 398.029 46.832C397.56 46.448 396.909 46.256 396.077 46.256L394.733 46.336V40.8H399.725V41.984H395.933V45.168L396.621 45.136C397.677 45.1467 398.509 45.44 399.117 46.016C399.725 46.592 400.029 47.4187 400.029 48.496C400.029 49.0933 399.928 49.6267 399.725 50.096C399.522 50.5547 399.245 50.9387 398.893 51.248C398.552 51.5573 398.146 51.792 397.677 51.952C397.208 52.112 396.706 52.192 396.173 52.192C395.693 52.192 395.288 52.1653 394.957 52.112C394.626 52.0587 394.317 51.9787 394.029 51.872L394.365 50.784C394.61 50.88 394.872 50.9547 395.149 51.008C395.437 51.0507 395.789 51.072 396.205 51.072Z" fill="black"/>
<rect x="426.5" y="31.5" width="71" height="31" stroke="#DDDDDD"/>
<path d="M465.513 48.624C465.513 49.1147 465.438 49.5787 465.289 50.016C465.139 50.4427 464.921 50.8213 464.633 51.152C464.345 51.472 463.987 51.728 463.561 51.92C463.134 52.1013 462.649 52.192 462.105 52.192C461.571 52.192 461.091 52.1067 460.665 51.936C460.238 51.7653 459.87 51.5147 459.561 51.184C459.251 50.8427 459.011 50.4267 458.841 49.936C458.681 49.4453 458.601 48.88 458.601 48.24C458.601 47.184 458.734 46.2133 459.001 45.328C459.278 44.432 459.657 43.6533 460.137 42.992C460.617 42.3307 461.182 41.7973 461.833 41.392C462.494 40.976 463.209 40.7147 463.977 40.608L464.249 41.632C463.651 41.7387 463.107 41.9413 462.617 42.24C462.126 42.5387 461.694 42.9067 461.321 43.344C460.958 43.7813 460.659 44.272 460.425 44.816C460.19 45.36 460.03 45.92 459.945 46.496C460.115 46.208 460.403 45.9467 460.809 45.712C461.214 45.4667 461.71 45.344 462.297 45.344C463.299 45.344 464.083 45.632 464.649 46.208C465.225 46.784 465.513 47.5893 465.513 48.624ZM464.185 48.752C464.185 47.9947 464.009 47.424 463.657 47.04C463.305 46.656 462.761 46.464 462.025 46.464C461.502 46.464 461.049 46.592 460.665 46.848C460.291 47.104 460.03 47.392 459.881 47.712C459.859 47.8613 459.849 47.984 459.849 48.08C459.849 48.176 459.849 48.2827 459.849 48.4C459.849 48.7307 459.891 49.056 459.977 49.376C460.073 49.696 460.217 49.984 460.409 50.24C460.601 50.4853 460.835 50.688 461.113 50.848C461.401 50.9973 461.737 51.072 462.121 51.072C462.43 51.072 462.707 51.0133 462.953 50.896C463.209 50.7787 463.427 50.6187 463.609 50.416C463.79 50.2133 463.929 49.968 464.025 49.68C464.131 49.392 464.185 49.0827 464.185 48.752Z" fill="black"/>
<rect x="497.5" y="31.5" width="71" height="31" stroke="#DDDDDD"/>
<path d="M530.356 48.624C530.356 49.1147 530.282 49.5787 530.132 50.016C529.983 50.4427 529.764 50.8213 529.476 51.152C529.188 51.472 528.831 51.728 528.404 51.92C527.978 52.1013 527.492 52.192 526.948 52.192C526.415 52.192 525.935 52.1067 525.508 51.936C525.082 51.7653 524.714 51.5147 524.404 51.184C524.095 50.8427 523.855 50.4267 523.684 49.936C523.524 49.4453 523.444 48.88 523.444 48.24C523.444 47.184 523.578 46.2133 523.844 45.328C524.122 44.432 524.5 43.6533 524.98 42.992C525.46 42.3307 526.026 41.7973 526.676 41.392C527.338 40.976 528.052 40.7147 528.82 40.608L529.092 41.632C528.495 41.7387 527.951 41.9413 527.46 42.24C526.97 42.5387 526.538 42.9067 526.164 43.344C525.802 43.7813 525.503 44.272 525.268 44.816C525.034 45.36 524.874 45.92 524.788 46.496C524.959 46.208 525.247 45.9467 525.652 45.712C526.058 45.4667 526.554 45.344 527.14 45.344C528.143 45.344 528.927 45.632 529.492 46.208C530.068 46.784 530.356 47.5893 530.356 48.624ZM529.028 48.752C529.028 47.9947 528.852 47.424 528.5 47.04C528.148 46.656 527.604 46.464 526.868 46.464C526.346 46.464 525.892 46.592 525.508 46.848C525.135 47.104 524.874 47.392 524.724 47.712C524.703 47.8613 524.692 47.984 524.692 48.08C524.692 48.176 524.692 48.2827 524.692 48.4C524.692 48.7307 524.735 49.056 524.82 49.376C524.916 49.696 525.06 49.984 525.252 50.24C525.444 50.4853 525.679 50.688 525.956 50.848C526.244 50.9973 526.58 51.072 526.964 51.072C527.274 51.072 527.551 51.0133 527.796 50.896C528.052 50.7787 528.271 50.6187 528.452 50.416C528.634 50.2133 528.772 49.968 528.868 49.68C528.975 49.392 529.028 49.0827 529.028 48.752ZM531.987 51.312C531.987 51.056 532.072 50.848 532.243 50.688C532.414 50.528 532.632 50.448 532.899 50.448C533.23 50.448 533.496 50.5653 533.699 50.8C533.912 51.0347 534.019 51.376 534.019 51.824C534.019 52.208 533.966 52.544 533.859 52.832C533.752 53.12 533.614 53.3653 533.443 53.568C533.272 53.7813 533.086 53.952 532.883 54.08C532.68 54.2187 532.478 54.32 532.275 54.384L531.875 53.76C532.259 53.6107 532.542 53.376 532.723 53.056C532.915 52.7467 533.011 52.432 533.011 52.112C532.915 52.144 532.824 52.16 532.739 52.16C532.526 52.16 532.344 52.0907 532.195 51.952C532.056 51.8027 531.987 51.5893 531.987 51.312ZM538.205 51.072C538.941 51.072 539.549 50.8587 540.029 50.432C540.509 50.0053 540.749 49.3867 540.749 48.576C540.749 47.7973 540.509 47.216 540.029 46.832C539.56 46.448 538.909 46.256 538.077 46.256L536.733 46.336V40.8H541.725V41.984H537.933V45.168L538.621 45.136C539.677 45.1467 540.509 45.44 541.117 46.016C541.725 46.592 542.029 47.4187 542.029 48.496C542.029 49.0933 541.928 49.6267 541.725 50.096C541.522 50.5547 541.245 50.9387 540.893 51.248C540.552 51.5573 540.146 51.792 539.677 51.952C539.208 52.112 538.706 52.192 538.173 52.192C537.693 52.192 537.288 52.1653 536.957 52.112C536.626 52.0587 536.317 51.9787 536.029 51.872L536.365 50.784C536.61 50.88 536.872 50.9547 537.149 51.008C537.437 51.0507 537.789 51.072 538.205 51.072Z" fill="black"/>
<rect x="568.5" y="31.5" width="71" height="31" stroke="#DDDDDD"/>
<path d="M601.401 52L605.417 42.624L606.121 41.84L605.177 41.984H600.617V40.8H607.305V41.232L602.697 52H601.401Z" fill="black"/>
<rect x="0.5" y="31.5" width="71" height="31" stroke="#DDDDDD"/>
<path d="M15.04 40.8H17.12V48.032C17.12 48.7573 17.024 49.3813 16.832 49.904C16.64 50.4267 16.3733 50.8587 16.032 51.2C15.6907 51.5413 15.2747 51.792 14.784 51.952C14.2933 52.112 13.7547 52.192 13.168 52.192C10.3307 52.192 8.912 50.896 8.912 48.304V40.8H11.104V47.872C11.104 48.3093 11.1413 48.6827 11.216 48.992C11.3013 49.2907 11.4293 49.536 11.6 49.728C11.7707 49.9093 11.984 50.0427 12.24 50.128C12.496 50.2027 12.7947 50.24 13.136 50.24C13.808 50.24 14.2933 50.0533 14.592 49.68C14.8907 49.3067 15.04 48.704 15.04 47.872V40.8ZM21.7593 47.216H21.1833V52H18.9913V40.8H21.1833V45.76L21.6953 45.536L24.7833 40.8H27.2793L24.0153 45.504L23.1513 46.112L24.0473 46.736L27.7753 52H25.0713L21.7593 47.216Z" fill="black"/>
<rect x="71.5" y="0.5" width="71" height="31" stroke="#DDDDDD"/>
<path d="M111.025 17.56H109.137V21H107.889V17.56H102.961V17.032L108.273 9.624H109.137V16.44H111.025V17.56ZM107.889 12.952L108.049 11.64H108.001L107.441 12.728L105.185 15.784L104.417 16.568L105.537 16.44H107.889V12.952Z" fill="black"/>
<rect x="142.5" y="0.5" width="71" height="31" stroke="#DDDDDD"/>
<path d="M175.868 17.56H173.98V21H172.732V17.56H167.804V17.032L173.116 9.624H173.98V16.44H175.868V17.56ZM172.732 12.952L172.892 11.64H172.844L172.284 12.728L170.028 15.784L169.26 16.568L170.38 16.44H172.732V12.952ZM176.987 20.312C176.987 20.056 177.072 19.848 177.243 19.688C177.414 19.528 177.632 19.448 177.899 19.448C178.23 19.448 178.496 19.5653 178.699 19.8C178.912 20.0347 179.019 20.376 179.019 20.824C179.019 21.208 178.966 21.544 178.859 21.832C178.752 22.12 178.614 22.3653 178.443 22.568C178.272 22.7813 178.086 22.952 177.883 23.08C177.68 23.2187 177.478 23.32 177.275 23.384L176.875 22.76C177.259 22.6107 177.542 22.376 177.723 22.056C177.915 21.7467 178.011 21.432 178.011 21.112C177.915 21.144 177.824 21.16 177.739 21.16C177.526 21.16 177.344 21.0907 177.195 20.952C177.056 20.8027 176.987 20.5893 176.987 20.312ZM183.205 20.072C183.941 20.072 184.549 19.8587 185.029 19.432C185.509 19.0053 185.749 18.3867 185.749 17.576C185.749 16.7973 185.509 16.216 185.029 15.832C184.56 15.448 183.909 15.256 183.077 15.256L181.733 15.336V9.8H186.725V10.984H182.933V14.168L183.621 14.136C184.677 14.1467 185.509 14.44 186.117 15.016C186.725 15.592 187.029 16.4187 187.029 17.496C187.029 18.0933 186.928 18.6267 186.725 19.096C186.522 19.5547 186.245 19.9387 185.893 20.248C185.552 20.5573 185.146 20.792 184.677 20.952C184.208 21.112 183.706 21.192 183.173 21.192C182.693 21.192 182.288 21.1653 181.957 21.112C181.626 21.0587 181.317 20.9787 181.029 20.872L181.365 19.784C181.61 19.88 181.872 19.9547 182.149 20.008C182.437 20.0507 182.789 20.072 183.205 20.072Z" fill="black"/>
<rect x="213.5" y="0.5" width="71" height="31" stroke="#DDDDDD"/>
<path d="M248.049 20.072C248.785 20.072 249.393 19.8587 249.873 19.432C250.353 19.0053 250.593 18.3867 250.593 17.576C250.593 16.7973 250.353 16.216 249.873 15.832C249.403 15.448 248.753 15.256 247.921 15.256L246.577 15.336V9.8H251.569V10.984H247.777V14.168L248.465 14.136C249.521 14.1467 250.353 14.44 250.961 15.016C251.569 15.592 251.873 16.4187 251.873 17.496C251.873 18.0933 251.771 18.6267 251.569 19.096C251.366 19.5547 251.089 19.9387 250.737 20.248C250.395 20.5573 249.99 20.792 249.521 20.952C249.051 21.112 248.55 21.192 248.017 21.192C247.537 21.192 247.131 21.1653 246.801 21.112C246.47 21.0587 246.161 20.9787 245.873 20.872L246.209 19.784C246.454 19.88 246.715 19.9547 246.993 20.008C247.281 20.0507 247.633 20.072 248.049 20.072Z" fill="black"/>
<rect x="284.5" y="0.5" width="71" height="31" stroke="#DDDDDD"/>
<path d="M312.892 20.072C313.628 20.072 314.236 19.8587 314.716 19.432C315.196 19.0053 315.436 18.3867 315.436 17.576C315.436 16.7973 315.196 16.216 314.716 15.832C314.247 15.448 313.596 15.256 312.764 15.256L311.42 15.336V9.8H316.412V10.984H312.62V14.168L313.308 14.136C314.364 14.1467 315.196 14.44 315.804 15.016C316.412 15.592 316.716 16.4187 316.716 17.496C316.716 18.0933 316.615 18.6267 316.412 19.096C316.21 19.5547 315.932 19.9387 315.58 20.248C315.239 20.5573 314.834 20.792 314.364 20.952C313.895 21.112 313.394 21.192 312.86 21.192C312.38 21.192 311.975 21.1653 311.644 21.112C311.314 21.0587 311.004 20.9787 310.716 20.872L311.052 19.784C311.298 19.88 311.559 19.9547 311.836 20.008C312.124 20.0507 312.476 20.072 312.892 20.072ZM318.987 20.312C318.987 20.056 319.072 19.848 319.243 19.688C319.414 19.528 319.632 19.448 319.899 19.448C320.23 19.448 320.496 19.5653 320.699 19.8C320.912 20.0347 321.019 20.376 321.019 20.824C321.019 21.208 320.966 21.544 320.859 21.832C320.752 22.12 320.614 22.3653 320.443 22.568C320.272 22.7813 320.086 22.952 319.883 23.08C319.68 23.2187 319.478 23.32 319.275 23.384L318.875 22.76C319.259 22.6107 319.542 22.376 319.723 22.056C319.915 21.7467 320.011 21.432 320.011 21.112C319.915 21.144 319.824 21.16 319.739 21.16C319.526 21.16 319.344 21.0907 319.195 20.952C319.056 20.8027 318.987 20.5893 318.987 20.312ZM325.205 20.072C325.941 20.072 326.549 19.8587 327.029 19.432C327.509 19.0053 327.749 18.3867 327.749 17.576C327.749 16.7973 327.509 16.216 327.029 15.832C326.56 15.448 325.909 15.256 325.077 15.256L323.733 15.336V9.8H328.725V10.984H324.933V14.168L325.621 14.136C326.677 14.1467 327.509 14.44 328.117 15.016C328.725 15.592 329.029 16.4187 329.029 17.496C329.029 18.0933 328.928 18.6267 328.725 19.096C328.522 19.5547 328.245 19.9387 327.893 20.248C327.552 20.5573 327.146 20.792 326.677 20.952C326.208 21.112 325.706 21.192 325.173 21.192C324.693 21.192 324.288 21.1653 323.957 21.112C323.626 21.0587 323.317 20.9787 323.029 20.872L323.365 19.784C323.61 19.88 323.872 19.9547 324.149 20.008C324.437 20.0507 324.789 20.072 325.205 20.072Z" fill="black"/>
<rect x="355.5" y="0.5" width="71" height="31" stroke="#DDDDDD"/>
<path d="M394.513 17.624C394.513 18.1147 394.438 18.5787 394.289 19.016C394.139 19.4427 393.921 19.8213 393.633 20.152C393.345 20.472 392.987 20.728 392.561 20.92C392.134 21.1013 391.649 21.192 391.105 21.192C390.571 21.192 390.091 21.1067 389.665 20.936C389.238 20.7653 388.87 20.5147 388.561 20.184C388.251 19.8427 388.011 19.4267 387.841 18.936C387.681 18.4453 387.601 17.88 387.601 17.24C387.601 16.184 387.734 15.2133 388.001 14.328C388.278 13.432 388.657 12.6533 389.137 11.992C389.617 11.3307 390.182 10.7973 390.833 10.392C391.494 9.976 392.209 9.71467 392.977 9.608L393.249 10.632C392.651 10.7387 392.107 10.9413 391.617 11.24C391.126 11.5387 390.694 11.9067 390.321 12.344C389.958 12.7813 389.659 13.272 389.425 13.816C389.19 14.36 389.03 14.92 388.945 15.496C389.115 15.208 389.403 14.9467 389.809 14.712C390.214 14.4667 390.71 14.344 391.297 14.344C392.299 14.344 393.083 14.632 393.649 15.208C394.225 15.784 394.513 16.5893 394.513 17.624ZM393.185 17.752C393.185 16.9947 393.009 16.424 392.657 16.04C392.305 15.656 391.761 15.464 391.025 15.464C390.502 15.464 390.049 15.592 389.665 15.848C389.291 16.104 389.03 16.392 388.881 16.712C388.859 16.8613 388.849 16.984 388.849 17.08C388.849 17.176 388.849 17.2827 388.849 17.4C388.849 17.7307 388.891 18.056 388.977 18.376C389.073 18.696 389.217 18.984 389.409 19.24C389.601 19.4853 389.835 19.688 390.113 19.848C390.401 19.9973 390.737 20.072 391.121 20.072C391.43 20.072 391.707 20.0133 391.953 19.896C392.209 19.7787 392.427 19.6187 392.609 19.416C392.79 19.2133 392.929 18.968 393.025 18.68C393.131 18.392 393.185 18.0827 393.185 17.752Z" fill="black"/>
<rect x="426.5" y="0.5" width="71" height="31" stroke="#DDDDDD"/>
<path d="M459.356 17.624C459.356 18.1147 459.282 18.5787 459.132 19.016C458.983 19.4427 458.764 19.8213 458.476 20.152C458.188 20.472 457.831 20.728 457.404 20.92C456.978 21.1013 456.492 21.192 455.948 21.192C455.415 21.192 454.935 21.1067 454.508 20.936C454.082 20.7653 453.714 20.5147 453.404 20.184C453.095 19.8427 452.855 19.4267 452.684 18.936C452.524 18.4453 452.444 17.88 452.444 17.24C452.444 16.184 452.578 15.2133 452.844 14.328C453.122 13.432 453.5 12.6533 453.98 11.992C454.46 11.3307 455.026 10.7973 455.676 10.392C456.338 9.976 457.052 9.71467 457.82 9.608L458.092 10.632C457.495 10.7387 456.951 10.9413 456.46 11.24C455.97 11.5387 455.538 11.9067 455.164 12.344C454.802 12.7813 454.503 13.272 454.268 13.816C454.034 14.36 453.874 14.92 453.788 15.496C453.959 15.208 454.247 14.9467 454.652 14.712C455.058 14.4667 455.554 14.344 456.14 14.344C457.143 14.344 457.927 14.632 458.492 15.208C459.068 15.784 459.356 16.5893 459.356 17.624ZM458.028 17.752C458.028 16.9947 457.852 16.424 457.5 16.04C457.148 15.656 456.604 15.464 455.868 15.464C455.346 15.464 454.892 15.592 454.508 15.848C454.135 16.104 453.874 16.392 453.724 16.712C453.703 16.8613 453.692 16.984 453.692 17.08C453.692 17.176 453.692 17.2827 453.692 17.4C453.692 17.7307 453.735 18.056 453.82 18.376C453.916 18.696 454.06 18.984 454.252 19.24C454.444 19.4853 454.679 19.688 454.956 19.848C455.244 19.9973 455.58 20.072 455.964 20.072C456.274 20.072 456.551 20.0133 456.796 19.896C457.052 19.7787 457.271 19.6187 457.452 19.416C457.634 19.2133 457.772 18.968 457.868 18.68C457.975 18.392 458.028 18.0827 458.028 17.752ZM460.987 20.312C460.987 20.056 461.072 19.848 461.243 19.688C461.414 19.528 461.632 19.448 461.899 19.448C462.23 19.448 462.496 19.5653 462.699 19.8C462.912 20.0347 463.019 20.376 463.019 20.824C463.019 21.208 462.966 21.544 462.859 21.832C462.752 22.12 462.614 22.3653 462.443 22.568C462.272 22.7813 462.086 22.952 461.883 23.08C461.68 23.2187 461.478 23.32 461.275 23.384L460.875 22.76C461.259 22.6107 461.542 22.376 461.723 22.056C461.915 21.7467 462.011 21.432 462.011 21.112C461.915 21.144 461.824 21.16 461.739 21.16C461.526 21.16 461.344 21.0907 461.195 20.952C461.056 20.8027 460.987 20.5893 460.987 20.312ZM467.205 20.072C467.941 20.072 468.549 19.8587 469.029 19.432C469.509 19.0053 469.749 18.3867 469.749 17.576C469.749 16.7973 469.509 16.216 469.029 15.832C468.56 15.448 467.909 15.256 467.077 15.256L465.733 15.336V9.8H470.725V10.984H466.933V14.168L467.621 14.136C468.677 14.1467 469.509 14.44 470.117 15.016C470.725 15.592 471.029 16.4187 471.029 17.496C471.029 18.0933 470.928 18.6267 470.725 19.096C470.522 19.5547 470.245 19.9387 469.893 20.248C469.552 20.5573 469.146 20.792 468.677 20.952C468.208 21.112 467.706 21.192 467.173 21.192C466.693 21.192 466.288 21.1653 465.957 21.112C465.626 21.0587 465.317 20.9787 465.029 20.872L465.365 19.784C465.61 19.88 465.872 19.9547 466.149 20.008C466.437 20.0507 466.789 20.072 467.205 20.072Z" fill="black"/>
<rect x="497.5" y="0.5" width="71" height="31" stroke="#DDDDDD"/>
<path d="M530.401 21L534.417 11.624L535.121 10.84L534.177 10.984H529.617V9.8H536.305V10.232L531.697 21H530.401Z" fill="black"/>
<rect x="568.5" y="0.5" width="71" height="31" stroke="#DDDDDD"/>
<path d="M596.127 21L600.143 11.624L600.847 10.84L599.903 10.984H595.343V9.8H602.031V10.232L597.423 21H596.127ZM602.104 20.312C602.104 20.056 602.19 19.848 602.36 19.688C602.531 19.528 602.75 19.448 603.016 19.448C603.347 19.448 603.614 19.5653 603.816 19.8C604.03 20.0347 604.136 20.376 604.136 20.824C604.136 21.208 604.083 21.544 603.976 21.832C603.87 22.12 603.731 22.3653 603.56 22.568C603.39 22.7813 603.203 22.952 603 23.08C602.798 23.2187 602.595 23.32 602.392 23.384L601.992 22.76C602.376 22.6107 602.659 22.376 602.84 22.056C603.032 21.7467 603.128 21.432 603.128 21.112C603.032 21.144 602.942 21.16 602.856 21.16C602.643 21.16 602.462 21.0907 602.312 20.952C602.174 20.8027 602.104 20.5893 602.104 20.312ZM608.322 20.072C609.058 20.072 609.666 19.8587 610.146 19.432C610.626 19.0053 610.866 18.3867 610.866 17.576C610.866 16.7973 610.626 16.216 610.146 15.832C609.677 15.448 609.026 15.256 608.194 15.256L606.85 15.336V9.8H611.842V10.984H608.05V14.168L608.738 14.136C609.794 14.1467 610.626 14.44 611.234 15.016C611.842 15.592 612.146 16.4187 612.146 17.496C612.146 18.0933 612.045 18.6267 611.842 19.096C611.639 19.5547 611.362 19.9387 611.01 20.248C610.669 20.5573 610.263 20.792 609.794 20.952C609.325 21.112 608.823 21.192 608.29 21.192C607.81 21.192 607.405 21.1653 607.074 21.112C606.743 21.0587 606.434 20.9787 606.146 20.872L606.482 19.784C606.727 19.88 606.989 19.9547 607.266 20.008C607.554 20.0507 607.906 20.072 608.322 20.072Z" fill="black"/>
<rect x="0.5" y="0.5" width="71" height="31" stroke="#DDDDDD"/>
<path d="M15.04 9.8H17.12V17.032C17.12 17.7573 17.024 18.3813 16.832 18.904C16.64 19.4267 16.3733 19.8587 16.032 20.2C15.6907 20.5413 15.2747 20.792 14.784 20.952C14.2933 21.112 13.7547 21.192 13.168 21.192C10.3307 21.192 8.912 19.896 8.912 17.304V9.8H11.104V16.872C11.104 17.3093 11.1413 17.6827 11.216 17.992C11.3013 18.2907 11.4293 18.536 11.6 18.728C11.7707 18.9093 11.984 19.0427 12.24 19.128C12.496 19.2027 12.7947 19.24 13.136 19.24C13.808 19.24 14.2933 19.0533 14.592 18.68C14.8907 18.3067 15.04 17.704 15.04 16.872V9.8ZM23.8233 17.992C23.8233 17.6507 23.6953 17.3733 23.4393 17.16C23.1939 16.9467 22.8793 16.7547 22.4953 16.584C22.1219 16.4027 21.7113 16.2213 21.2633 16.04C20.8259 15.848 20.4153 15.6187 20.0312 15.352C19.6579 15.0747 19.3433 14.7333 19.0872 14.328C18.8419 13.9227 18.7193 13.4053 18.7193 12.776C18.7193 12.232 18.8099 11.7627 18.9913 11.368C19.1726 10.9627 19.4286 10.6267 19.7593 10.36C20.1006 10.0933 20.5006 9.896 20.9593 9.768C21.4179 9.64 21.9299 9.576 22.4953 9.576C23.1459 9.576 23.7593 9.63467 24.3353 9.752C24.9113 9.85867 25.3859 10.0187 25.7593 10.232L25.0713 12.072C24.8366 11.9227 24.4846 11.7893 24.0153 11.672C23.5459 11.544 23.0393 11.48 22.4953 11.48C21.9833 11.48 21.5886 11.5813 21.3113 11.784C21.0446 11.9867 20.9113 12.2587 20.9113 12.6C20.9113 12.92 21.0339 13.1867 21.2793 13.4C21.5353 13.6133 21.8499 13.8107 22.2233 13.992C22.6073 14.1733 23.0179 14.36 23.4553 14.552C23.9033 14.744 24.3139 14.9787 24.6873 15.256C25.0713 15.5227 25.3859 15.8587 25.6313 16.264C25.8873 16.6587 26.0153 17.1547 26.0153 17.752C26.0153 18.3493 25.9139 18.8667 25.7113 19.304C25.5193 19.7307 25.2419 20.088 24.8793 20.376C24.5273 20.664 24.0953 20.8773 23.5833 21.016C23.0819 21.1547 22.5273 21.224 21.9193 21.224C21.1193 21.224 20.4153 21.1493 19.8073 21C19.1993 20.8507 18.7513 20.7013 18.4633 20.552L19.1673 18.68C19.2846 18.744 19.4339 18.8133 19.6153 18.888C19.8073 18.9627 20.0206 19.032 20.2553 19.096C20.4899 19.16 20.7353 19.2133 20.9913 19.256C21.2579 19.2987 21.5299 19.32 21.8073 19.32C22.4579 19.32 22.9539 19.2133 23.2953 19C23.6473 18.776 23.8233 18.44 23.8233 17.992Z" fill="black"/>
</svg>
